# xmcd CD database file
#
# Track frame offsets:
#	182
#	15047
#	27217
#	50482
#	63232
#	73917
#	86925
#	96437
#	107867
#	120557
#	131035
#	137127
#	147847
#	157482
#	164925
#	181100
#	194305
#	208495
#	219027
#	230265
#	244692
#	258050
#	272657
#	283837
#	296062
#
# Disc length: 4165 seconds
#
# Revision: 0
# Processed by: cddbd v1.5.2PL0 Copyright (c) Steve Scherf et al.
# Submitted via: CDex 1.51
#
DISCID=85104319
DTITLE=Artisti vari - L'album di Country Music
DYEAR=1992
DGENRE=Country
TTITLE0=Stories we could tell - The Everly Brothers
TTITLE1=There's a star spangled banner waving somewhere - Elton Britt
TTITLE2=Lonesome run - Foster and Lloyd
TTITLE3=Nine pound hammer - Cheat Atkins and Merle Travis
TTITLE4=You're gonna be sorry - Cheat Atkins and Merle Travis
TTITLE5=Crystal chandelier - Carl Belew
TTITLE6=Pick away - Lester Flatt
TTITLE7=Orange blossom special - Bill Monroe and His Blue Grass Boys
TTITLE8=I'm movin' on - Hank Snow and his Rainbow Ranch Boys
TTITLE9=I just found out - Johnny Burnette
TTITLE10=It's not my fault - Budd Holly
TTITLE11=San Antonio rose - Patsy Cline
TTITLE12=Don't come home a drinkin' - Loretta Lynn
TTITLE13=Short life of trouble - John Hartford
TTITLE14=New river train - White Lightning
TTITLE15=In the ghetto - Merle Haggard
TTITLE16=Mule skinner blues - Dolly Parton
TTITLE17=When you're hot, you're hot - Jerry Reed
TTITLE18=You mean to say - Jessi Colter
TTITLE19=Texas 1947 - Guy Clark
TTITLE20=Good hearted woman - Waylon Jennings
TTITLE21=Yesterday's wine - Willie Nelson
TTITLE22=I've got the same old blues - Steve Young
TTITLE23=Durango - John Stewart
TTITLE24=Golden life - Jack Tempchin
EXTD=YEAR: 1992
EXTT0=
EXTT1=
EXTT2=
EXTT3=
EXTT4=
EXTT5=
EXTT6=
EXTT7=
EXTT8=
EXTT9=
EXTT10=
EXTT11=
EXTT12=
EXTT13=
EXTT14=
EXTT15=
EXTT16=
EXTT17=
EXTT18=
EXTT19=
EXTT20=
EXTT21=
EXTT22=
EXTT23=
EXTT24=
PLAYORDER=
